<svg xmlns="http://www.w3.org/2000/svg" viewBox="0 0 38.76 48"><defs><style>.cls-1{fill:none;stroke:#f6b776;stroke-miterlimit:10;stroke-width:3px;}</style></defs><title>Asset 24</title><g id="Layer_2" data-name="Layer 2"><g id="Layer_1-2" data-name="Layer 1"><path class="cls-1" d="M34,41.16H4.79a3.28,3.28,0,0,1-3-4.51L6,29.82V20.19C6,12.81,10.47,6.84,17.84,6.84h1.53A13.35,13.35,0,0,1,32.72,20.19v9.53L37,36.66A3.29,3.29,0,0,1,34,41.16Z"/><path class="cls-1" d="M14.41,41.16H25.09a0,0,0,0,1,0,0v0a5.34,5.34,0,0,1-5.34,5.34h0a5.34,5.34,0,0,1-5.34-5.34v0A0,0,0,0,1,14.41,41.16Z"/><path class="cls-1" d="M19.75,1.5h0c-2.95,0-2.29,2.39-2.29,5.34H22C22,3.89,22.7,1.5,19.75,1.5Z"/></g></g></svg>