<svg xmlns="http://www.w3.org/2000/svg" viewBox="0 0 39.34 41.44"><defs><style>.cls-1{fill:none;stroke:#f6b776;stroke-miterlimit:10;stroke-width:3px;}</style></defs><g id="Capa_2" data-name="Capa 2"><g id="Layer_1" data-name="Layer 1"><path class="cls-1" d="M8,9.43h6.77a0,0,0,0,1,0,0V25.91a0,0,0,0,1,0,0H8A6.49,6.49,0,0,1,1.5,19.42v-3.5A6.49,6.49,0,0,1,8,9.43Z"/><path class="cls-1" d="M13.14,39.94H11.47a2.25,2.25,0,0,1-2.14-1.55L5.27,25.91h9.42l.69,11.65A2.24,2.24,0,0,1,13.14,39.94Z"/><path class="cls-1" d="M35.08,33.45a44.39,44.39,0,0,0-20.33-7.54V9.46A37.16,37.16,0,0,0,25,7.25,37.3,37.3,0,0,0,35.06,1.63,2.12,2.12,0,0,1,37,1.85a2,2,0,0,1,.89,1.69v28A2,2,0,0,1,35.08,33.45Z"/></g></g></svg>