<svg xmlns="http://www.w3.org/2000/svg" viewBox="0 0 29.41 38"><defs><style>.cls-1{fill:none;stroke-width:3px;}.cls-1,.cls-2{stroke:#f4b676;stroke-miterlimit:10;}.cls-2{fill:#f4b676;}</style></defs><title>Recurso 54</title><g id="Capa_2" data-name="Capa 2"><g id="Layer_1" data-name="Layer 1"><path class="cls-1" d="M18.37,10.6l3.68-6.93A13.19,13.19,0,0,0,14.71,1.5,13.14,13.14,0,0,0,7.37,3.67L11,10.6"/><circle class="cls-1" cx="14.71" cy="23.29" r="13.21"/><path class="cls-2" d="M14.06,30.08v-1.7a4.84,4.84,0,0,1-2.56-.74l.4-1.13a4.31,4.31,0,0,0,2.39.73c1.21,0,2-.7,2-1.66s-.65-1.49-1.9-2c-1.72-.67-2.78-1.47-2.78-2.93a2.75,2.75,0,0,1,2.53-2.71V16.25h1.06v1.64a4.42,4.42,0,0,1,2.19.59L17,19.59A4.11,4.11,0,0,0,14.86,19c-1.29,0-1.78.77-1.78,1.46,0,.86.62,1.3,2.09,1.92,1.73.71,2.61,1.57,2.61,3.07a2.94,2.94,0,0,1-2.66,2.88v1.75Z"/></g></g></svg>