<svg xmlns="http://www.w3.org/2000/svg" viewBox="0 0 92.7 92.7"><defs><style>.cls-1{fill:#f6b776;}.cls-2{fill:#fff;stroke:#fff;stroke-miterlimit:10;}</style></defs><g id="Capa_2" data-name="Capa 2"><g id="Layer_1" data-name="Layer 1"><rect class="cls-1" width="92.7" height="92.7" rx="46.35"/><path class="cls-2" d="M62.55,30l4.08-3.3a27.48,27.48,0,0,0-2.5-2.3l-2.91,4.38C61.69,29.14,62.12,29.55,62.55,30Z"/><path class="cls-2" d="M67.82,38l5.08-1.35a28,28,0,0,0-3-5.94l-4.08,3.31A22.42,22.42,0,0,1,67.82,38Z"/><path class="cls-2" d="M68.75,51.92l4.92,1.81a28.33,28.33,0,0,0,.57-12l-5.07,1.34A23.19,23.19,0,0,1,68.75,51.92Z"/><path class="cls-2" d="M66.93,56.82a23.85,23.85,0,0,1-1.34,2.34A23,23,0,0,1,49,69.29l0,5.25A27.86,27.86,0,0,0,71.85,58.63Z"/><path class="cls-2" d="M28.57,68.4a28.18,28.18,0,0,0,15.29,6.18l0-5.27a23.06,23.06,0,1,1,9.72-44.82l2.17-4.78A28.28,28.28,0,0,0,28.57,68.4Z"/></g></g></svg>