<svg xmlns="http://www.w3.org/2000/svg" viewBox="0 0 33.39 37.59"><defs><style>.cls-1{fill:#f4b676;}.cls-2{fill:none;stroke:#f4b676;stroke-miterlimit:10;stroke-width:3px;}</style></defs><g id="Capa_2" data-name="Capa 2"><g id="Layer_1" data-name="Layer 1"><path class="cls-1" d="M29.49,16.64V31.15a3.44,3.44,0,0,1-3.44,3.44H6.44A3.44,3.44,0,0,1,3,31.15V11.54A3.44,3.44,0,0,1,6.44,8.1H17l2.12-3H6.44A6.45,6.45,0,0,0,0,11.54V31.15a6.45,6.45,0,0,0,6.44,6.44H26.05a6.45,6.45,0,0,0,6.44-6.44V12.39Z"/><path class="cls-2" d="M12.15,22.1l.07,5.73,5.41-1.89L31.56,6.14a2.09,2.09,0,0,0-.64-2.87L29,1.92a2.1,2.1,0,0,0-2.92.37Z"/></g></g></svg>