<svg xmlns="http://www.w3.org/2000/svg" viewBox="0 0 228 199"><defs><style>.cls-1{fill:none;stroke-linecap:round;stroke-miterlimit:10;stroke-width:6px;}.cls-1,.cls-2,.cls-3{stroke:#f0f0f0;}.cls-2{fill:#fff;}.cls-2,.cls-3{stroke-linejoin:round;stroke-width:5px;}.cls-3{fill:#f0f0f0;}</style></defs><g id="Capa_2" data-name="Capa 2"><g id="Layer_1" data-name="Layer 1"><line class="cls-1" x1="113.5" y1="3" x2="113.5" y2="37"/><line class="cls-1" x1="181.5" y1="10.44" x2="163.5" y2="36.65"/><line class="cls-1" x1="48.5" y1="10.44" x2="66.5" y2="36.65"/><polyline class="cls-2" points="225.5 147.5 225.5 121.5 180.5 73.5 47.5 73.5 2.5 121.5 2.5 147.5"/><path class="cls-3" d="M217.22,196.5H10.78a8.28,8.28,0,0,1-8.28-8.28V121.5H57.11a13.79,13.79,0,0,1,9.82,4.11L85.2,144.14a14.65,14.65,0,0,0,10.43,4.36h36.81a14.63,14.63,0,0,0,10.35-4.29l18.67-18.67a13.8,13.8,0,0,1,9.76-4H225.5v66.72A8.28,8.28,0,0,1,217.22,196.5Z"/></g></g></svg>