<svg xmlns="http://www.w3.org/2000/svg" viewBox="0 0 57 57"><defs><style>.cls-1,.cls-3{fill:#31b0b9;}.cls-1{stroke:#31b0b9;stroke-miterlimit:10;stroke-width:2px;}.cls-2{fill:#fff;}</style></defs><g id="Capa_2" data-name="Capa 2"><g id="Layer_1" data-name="Layer 1"><rect class="cls-1" x="1" y="1" width="55" height="55" rx="9.76"/><path class="cls-2" d="M28.58,12A13.11,13.11,0,0,1,41.69,25.1c0,8.72-13.11,21.2-13.11,21.2S15.47,33.82,15.47,25.1A13.11,13.11,0,0,1,28.58,12ZM35.33,25.2A6.77,6.77,0,1,0,28.58,32,6.78,6.78,0,0,0,35.33,25.2Z"/><path class="cls-3" d="M28.58,18.42a6.79,6.79,0,1,1-6.79,6.78A6.78,6.78,0,0,1,28.58,18.42Z"/></g></g></svg>