<svg xmlns="http://www.w3.org/2000/svg" viewBox="0 0 58.51 65.5"><defs><style>.cls-1{fill:#f6b776;}</style></defs><title>222logo_header</title><g id="Layer_2" data-name="Layer 2"><g id="Layer_1-2" data-name="Layer 1"><path class="cls-1" d="M8.29,63.19V60.45H5V58.39H10.8v6.93H4.59l-.53-.07a4,4,0,0,1-.5-.1c-.18-.05-.44-.13-.76-.25a4.24,4.24,0,0,1-1.23-.82A4.18,4.18,0,0,1,.41,62.26,7.91,7.91,0,0,1,0,59.69V59a6.2,6.2,0,0,1,.2-1.6A6.63,6.63,0,0,1,.72,56,4.78,4.78,0,0,1,1.49,55a4.78,4.78,0,0,1,1.33-.9,6.17,6.17,0,0,1,2.7-.44H10.8v2H5.52a2.57,2.57,0,0,0-1.68.5A2.57,2.57,0,0,0,3,57.49a6.6,6.6,0,0,0-.25,1.89v.18a5.14,5.14,0,0,0,.58,2.67,2.36,2.36,0,0,0,2.2,1Z"/><path class="cls-1" d="M15.39,65.32H13.14V56.74H17a3.19,3.19,0,0,1,1.56.3,1.29,1.29,0,0,1,.67.79,5.18,5.18,0,0,1,.15,1.4v1.09H17.19v-.68a2.85,2.85,0,0,0-.09-.89.49.49,0,0,0-.31-.3l-.37-.05h-1Z"/><path class="cls-1" d="M28.43,63.55v1.77H25.12a4.21,4.21,0,0,1-3.27-1.17A4.42,4.42,0,0,1,20.78,61a4.15,4.15,0,0,1,.83-2.87A3.71,3.71,0,0,1,23.28,57a6.3,6.3,0,0,1,1.84-.25h3.31v1.78h-3a5,5,0,0,0-1.16.11,1.15,1.15,0,0,0-.67.47,1.63,1.63,0,0,0-.29,1h5.12V62H23.31a1.79,1.79,0,0,0,.23,1,1.25,1.25,0,0,0,.68.48,5.91,5.91,0,0,0,1.19.1Z"/><path class="cls-1" d="M32.63,65.32H30.37V56.74h8.7a6.73,6.73,0,0,1,1.54.17,3.21,3.21,0,0,1,1.1.52,2.25,2.25,0,0,1,.69,1,4,4,0,0,1,.25,1.5v5.44H40.38V60.18a2.39,2.39,0,0,0-.16-1,.83.83,0,0,0-.5-.45,2.34,2.34,0,0,0-.79-.12H37.64v6.71H35.3V58.61H32.63Z"/><path class="cls-1" d="M45.16,53.62h2.35v2.13H45.16Zm0,3.12h2.35v8.58H45.16Z"/><path class="cls-1" d="M57.24,64.3a3.88,3.88,0,0,1-1.28.8,7.53,7.53,0,0,1-1.09.32,5.22,5.22,0,0,1-2.71-.24,4.06,4.06,0,0,1-1.49-.88,3.51,3.51,0,0,1-.86-1.25,6.53,6.53,0,0,1-.34-1.11,4.44,4.44,0,0,1-.08-.92,4.31,4.31,0,0,1,.25-1.57,6.52,6.52,0,0,1,.47-1,5.34,5.34,0,0,1,.69-.81,3.6,3.6,0,0,1,1.32-.78A5.27,5.27,0,0,1,54,56.56a5.09,5.09,0,0,1,1.78.31,3.55,3.55,0,0,1,1.34.76,5.09,5.09,0,0,1,.71.81,6.41,6.41,0,0,1,.48,1,4.53,4.53,0,0,1,.24,1.6,5.15,5.15,0,0,1-.32,1.79A4.17,4.17,0,0,1,57.24,64.3Zm-4.05-.79a1,1,0,0,0,.33.1l.4,0a2.16,2.16,0,0,0,1.28-.4,1.94,1.94,0,0,0,.76-1,4,4,0,0,0,.18-1.18,3.39,3.39,0,0,0-.31-1.51,2,2,0,0,0-1-.94,2.8,2.8,0,0,0-.84-.16,2.43,2.43,0,0,0-.88.18,2.24,2.24,0,0,0-.73.54,2.09,2.09,0,0,0-.45.8,3.25,3.25,0,0,0-.16,1.09,3.18,3.18,0,0,0,.35,1.49A2,2,0,0,0,53.19,63.51Z"/><path class="cls-1" d="M27.54,27H20.7v3.41h6.84V41H15.77a5.34,5.34,0,0,1-5.34-5.32V27.31H7v8.33a8.76,8.76,0,0,0,8.76,8.73H31V27H27.54Z"/><path class="cls-1" d="M37.81,20.48H34.39v10h3.42V23.89H48.08V35.64A5.34,5.34,0,0,1,42.74,41H34.39v3.41h8.35a8.76,8.76,0,0,0,8.76-8.73V20.48H37.81Z"/><path class="cls-1" d="M42.74,0H27.54V13.37h0v3.41H37.81V13.37H31v-10H42.74a5.34,5.34,0,0,1,5.34,5.33v8.18H51.5V8.74A8.76,8.76,0,0,0,42.74,0Z"/><path class="cls-1" d="M10.43,23.89H24.12V13.37H20.7v7.11H10.43V8.74a5.34,5.34,0,0,1,5.34-5.33h8.35V0H15.77A8.76,8.76,0,0,0,7,8.74V23.89h3.42Z"/></g></g></svg>