<svg xmlns="http://www.w3.org/2000/svg" viewBox="0 0 44.84 34"><defs><style>.cls-1{fill:none;stroke:#f4b676;stroke-miterlimit:10;stroke-width:3px;}</style></defs><g id="Capa_2" data-name="Capa 2"><g id="Layer_1" data-name="Layer 1"><path class="cls-1" d="M1.5,30.72V24a1.68,1.68,0,0,1,1.59-1.77H15.45V32.5H3.09A1.69,1.69,0,0,1,1.5,30.72Z"/><rect class="cls-1" x="15.45" y="22.18" width="13.95" height="10.32"/><path class="cls-1" d="M29.39,32.5V22.18H41.74A1.69,1.69,0,0,1,43.34,24v6.77a1.7,1.7,0,0,1-1.6,1.78Z"/><path class="cls-1" d="M8.47,22.15V13.6a1.7,1.7,0,0,1,1.6-1.78H22.42V22.15Z"/><path class="cls-1" d="M22.42,22.15V11.82H34.77a1.69,1.69,0,0,1,1.59,1.78v8.55Z"/><path class="cls-1" d="M15.68,11.82V4.16A2.54,2.54,0,0,1,18.07,1.5h9.16a2.54,2.54,0,0,1,2.39,2.66v7.66Z"/></g></g></svg>