<svg xmlns="http://www.w3.org/2000/svg" viewBox="0 0 37.7 37.7"><defs><style>.cls-1{fill:#f66;}.cls-2{fill:#fff;}</style></defs><g id="Capa_2" data-name="Capa 2"><g id="Layer_1" data-name="Layer 1"><circle class="cls-1" cx="18.85" cy="18.85" r="18.85"/><path class="cls-2" d="M22,30.16l-4.76-4.22H11.83a3.28,3.28,0,0,1-3.27-3.27V14a3.28,3.28,0,0,1,3.27-3.27H26.29A3.28,3.28,0,0,1,29.56,14v8.7a3.28,3.28,0,0,1-3.27,3.27H23.1ZM11.83,12.78A1.2,1.2,0,0,0,10.64,14v8.7a1.19,1.19,0,0,0,1.19,1.19H18l2.8,2.49.65-2.49h4.8a1.19,1.19,0,0,0,1.19-1.19V14a1.2,1.2,0,0,0-1.19-1.19Z"/></g></g></svg>