<svg xmlns="http://www.w3.org/2000/svg" viewBox="0 0 37.59 37.59"><defs><style>.cls-1{fill:#f66;}.cls-2{fill:#fff;}</style></defs><g id="Capa_2" data-name="Capa 2"><g id="Layer_1" data-name="Layer 1"><circle class="cls-1" cx="18.8" cy="18.8" r="18.8"/><path class="cls-2" d="M14.42,20.37a6.86,6.86,0,1,1,11.2-5.28,6.9,6.9,0,0,1-2.45,5.28c2.77,1.74,5.57,4,6.93,6.71a.38.38,0,0,1,0,.41A12.7,12.7,0,0,1,28.79,29a.16.16,0,0,1-.28-.06c-.88-2.7-4-5.14-6.37-6.65a6.09,6.09,0,0,0-3.28-1h-.12a6.06,6.06,0,0,0-3.28,1c-2.35,1.51-5.5,4-6.38,6.65A.16.16,0,0,1,8.8,29a13.69,13.69,0,0,1-1.28-1.55.43.43,0,0,1,0-.41C8.85,24.41,11.66,22.11,14.42,20.37ZM17,19.2a4.57,4.57,0,0,0,3.66,0,4.62,4.62,0,1,0-3.66,0Z"/></g></g></svg>