<svg xmlns="http://www.w3.org/2000/svg" viewBox="0 0 63.36 63.36"><defs><style>.cls-1{fill:#313139;}</style></defs><title>222perfil_icon_1</title><g id="Layer_2" data-name="Layer 2"><g id="Layer_1-2" data-name="Layer 1"><path class="cls-1" d="M37.43,41.52a11.71,11.71,0,1,0-11.43,0c-5.05,3.29-12.42,9-13.89,15,.51.4,1,.79,1.56,1.16h0l.11.08.51.32c.26.17.52.36.79.52h0l.41.27.36.21c.54.3,1.08.6,1.64.88l.27.14c.62.3,1.26.58,1.9.85l.43.17c.59.23,1.19.45,1.79.64l.24.08c.67.21,1.35.4,2,.57l.48.11c.65.14,1.31.28,2,.38l.15,0c.71.11,1.43.19,2.15.25l.52,0c.73,0,1.46.09,2.21.09s1.48,0,2.21-.09l.52,0c.72-.06,1.43-.14,2.14-.25l.15,0c.67-.1,1.33-.24,2-.38l.47-.11c.69-.17,1.37-.36,2-.57l.24-.08c.61-.19,1.21-.41,1.8-.64l.42-.17c.65-.27,1.28-.55,1.9-.85l.28-.14c.55-.28,1.1-.58,1.63-.88l.36-.21.42-.27h0l.75-.5c.18-.12.37-.22.54-.34l.11-.08v0c.57-.39,1.13-.8,1.67-1.23C49.83,50.47,42.46,44.79,37.43,41.52ZM31.69,25.46a5.87,5.87,0,1,1-5.86,5.87A5.87,5.87,0,0,1,31.69,25.46Zm10.08,30-.35.14c-.6.24-1.21.47-1.83.67l-.77.22c-.5.15-1,.28-1.52.39l-.84.18c-.53.1-1.07.18-1.61.24l-.76.1c-.79.07-1.59.12-2.41.12h0c-.81,0-1.61,0-2.41-.12l-.76-.1c-.54-.06-1.08-.14-1.61-.24l-.84-.18c-.51-.11-1-.24-1.51-.39l-.77-.22c-.63-.2-1.24-.43-1.84-.67l-.35-.14c-.64-.28-1.27-.59-1.89-.91,2.59-3.2,7.32-6.89,12-9.66,4.7,2.76,9.42,6.43,12,9.62C43.11,54.84,42.45,55.16,41.77,55.45Z"/><path class="cls-1" d="M62.36,23.77a30.09,30.09,0,0,0-.93-3c-.36-1-.76-1.92-1.2-2.84a31.67,31.67,0,0,0-57.1,0,28.42,28.42,0,0,0-1.2,2.84,30.09,30.09,0,0,0-.93,3,31.75,31.75,0,0,0-1,7.91c0,.89.05,1.77.12,2.64,0,.11,0,.23,0,.35.08.82.2,1.64.34,2.45,0,.14.05.28.07.42.15.8.33,1.6.54,2.37,0,.12.07.24.1.36.23.8.48,1.6.77,2.38l0,.1c.3.79.62,1.56,1,2.32,0,.06,0,.12.08.17.35.75.74,1.47,1.15,2.18a2.75,2.75,0,0,0,.17.29c.4.7.84,1.38,1.3,2l.19.26c.48.67,1,1.33,1.5,2l0,0a18.15,18.15,0,0,1,3.06-5.61l-.05-.09c-.18-.25-.33-.51-.49-.77s-.48-.75-.7-1.14-.31-.57-.46-.85-.42-.83-.61-1.26C8,42,7.91,41.77,7.8,41.5q-.42-1-.75-2c-.06-.19-.1-.38-.16-.56-.16-.56-.31-1.12-.43-1.69-.06-.26-.11-.53-.16-.79-.1-.53-.18-1.08-.24-1.63,0-.24-.07-.48-.09-.73-.07-.78-.12-1.58-.12-2.38a26.2,26.2,0,0,1,.52-5.2A25.89,25.89,0,0,1,31.68,5.85h0A25.87,25.87,0,0,1,57,26.48a25.48,25.48,0,0,1,.53,5.2c0,.8,0,1.6-.12,2.38l-.09.73c-.07.55-.15,1.1-.25,1.63l-.15.79c-.13.57-.28,1.13-.44,1.69l-.15.56c-.23.69-.48,1.37-.76,2-.1.27-.23.52-.34.78-.2.42-.4.85-.61,1.26s-.3.57-.46.85-.46.77-.7,1.14-.32.52-.49.77l-.06.09A17.94,17.94,0,0,1,56,52l0,0c.53-.63,1-1.29,1.51-2l.18-.26c.46-.66.9-1.34,1.31-2,.06-.09.11-.19.17-.29.41-.71.79-1.43,1.15-2.18l.08-.17c.35-.76.68-1.53,1-2.32a.42.42,0,0,0,0-.1c.29-.78.54-1.58.77-2.38,0-.12.07-.24.1-.36.21-.77.39-1.57.54-2.37,0-.14.05-.28.08-.42.14-.81.25-1.63.33-2.45l0-.35c.07-.87.12-1.75.12-2.64A31.75,31.75,0,0,0,62.36,23.77Z"/></g></g></svg>