<svg xmlns="http://www.w3.org/2000/svg" viewBox="0 0 61.22 61.1"><defs><style>.cls-1{fill:#313139;}</style></defs><title>solicitudes_icon</title><g id="Layer_2" data-name="Layer 2"><g id="Layer_1-2" data-name="Layer 1"><path class="cls-1" d="M48.14,12.83l4.42-3.58a30.64,30.64,0,0,0-2.71-2.49L46.71,11.5C47.21,11.92,47.68,12.37,48.14,12.83Z"/><path class="cls-1" d="M53.85,21.54l5.49-1.46a30.19,30.19,0,0,0-3.23-6.42l-4.42,3.57A25.53,25.53,0,0,1,53.85,21.54Z"/><path class="cls-1" d="M54.85,36.58l5.32,2a30.49,30.49,0,0,0,.62-13L55.31,27A25.14,25.14,0,0,1,54.85,36.58Z"/><path class="cls-1" d="M52.89,41.88a26,26,0,0,1-1.46,2.54,24.93,24.93,0,0,1-17.91,11l0,5.69A30.61,30.61,0,0,0,56.14,47.55a29.54,29.54,0,0,0,2.07-3.71Z"/><path class="cls-1" d="M13.68,56.11a30.37,30.37,0,0,0,14.23,5l0-5.7A25,25,0,1,1,38.39,6.89l2.35-5.18a30.62,30.62,0,0,0-27.06,54.4Z"/></g></g></svg>