<svg xmlns="http://www.w3.org/2000/svg" viewBox="0 0 57 57"><defs><style>.cls-1,.cls-3{fill:#f6b776;}.cls-1{stroke:#f6b776;stroke-miterlimit:10;stroke-width:2px;}.cls-2{fill:#fff;}</style></defs><title>Asset 26</title><g id="Layer_2" data-name="Layer 2"><g id="Layer_1-2" data-name="Layer 1"><rect class="cls-1" x="1" y="1" width="55" height="55" rx="9.76" ry="9.76"/><path class="cls-2" d="M28.58,12A13.11,13.11,0,0,1,41.7,25.11c0,8.68-13.12,21.16-13.12,21.16S15.47,33.79,15.47,25.11A13.11,13.11,0,0,1,28.58,12Zm6.75,13.22A6.77,6.77,0,1,0,28.58,32,6.75,6.75,0,0,0,35.33,25.21Z"/><path class="cls-3" d="M28.58,18.43a6.77,6.77,0,1,1-6.78,6.78A6.75,6.75,0,0,1,28.58,18.43Z"/></g></g></svg>